<svg width="107" height="25" fill="none" xmlns="http://www.w3.org/2000/svg"><path d="M7.627.32h3.182l7.787 19.152H14.47l-1.555-3.763H5.608L4.11 19.472H0L7.627.321zm1.598 6.273l-2.222 5.645h4.518L9.225 6.593zm15.647.335v1.853h.058c.368-.623.795-1.114 1.279-1.474.494-.369.949-.554 1.366-.554.251 0 .479.02.682.059v4.084a4.935 4.935 0 00-.915-.088c-.765 0-1.36.272-1.787.817-.416.535-.625 1.288-.625 2.26v5.587h-3.777V6.928h3.72zm7.264-4.303h3.72v4.303h1.786v3.428h-1.787v9.116h-3.719v-9.116h-1.423V6.928h1.423V2.625zm30.088-1.283v4.682c-2.063-1.254-3.87-1.882-5.419-1.882-1.55 0-2.79.535-3.72 1.605-.929 1.07-1.394 2.509-1.394 4.317 0 1.712.49 3.083 1.468 4.113.978 1.021 2.285 1.532 3.922 1.532 1.434 0 3.148-.579 5.143-1.736v4.638c-2.237.75-4.102 1.123-5.593 1.123-2.567 0-4.746-.943-6.538-2.83-1.792-1.895-2.688-4.205-2.688-6.927 0-2.772.91-5.115 2.732-7.03 1.83-1.927 4.053-2.89 6.668-2.89 1.685 0 3.492.428 5.42 1.284zM65.319 0h3.719v19.472h-3.72V0zm15.85 19.472v-2.144h-.058c-.581.836-1.167 1.444-1.758 1.823-.59.37-1.322.554-2.194.554-1.462 0-2.707-.632-3.734-1.896-1.026-1.264-1.54-2.8-1.54-4.609 0-1.79.548-3.32 1.642-4.594 1.094-1.284 2.392-1.926 3.894-1.926.716 0 1.36.16 1.932.482.571.32 1.177.831 1.816 1.531V6.957h3.72v12.515h-3.72zm-2.731-9.058c-.737 0-1.352.297-1.846.89-.493.583-.74 1.322-.74 2.217 0 .836.232 1.512.697 2.027.474.506 1.094.759 1.86.759.736 0 1.365-.292 1.888-.875.523-.593.785-1.308.785-2.144a2.86 2.86 0 00-.785-2.013c-.523-.574-1.143-.86-1.86-.86zm9.138-3.457h3.966l3.588 7.293 3.197-7.293h3.806L94.361 25h-3.865l2.79-6.418-5.71-11.625zm14.775 10.429c0-.642.228-1.19.683-1.648a2.233 2.233 0 011.641-.685c.64 0 1.187.228 1.642.685.455.457.683 1.006.683 1.648 0 .632-.228 1.177-.683 1.634a2.233 2.233 0 01-1.642.685 2.232 2.232 0 01-1.641-.685 2.236 2.236 0 01-.683-1.634z" fill="#fff"/></svg>