<svg width="22" height="18" fill="none" xmlns="http://www.w3.org/2000/svg"><path d="M21.61 2.079c-.795.353-1.65.59-2.546.698A4.447 4.447 0 0021.013.324 8.875 8.875 0 0118.198 1.4a4.434 4.434 0 00-7.555 4.044A12.587 12.587 0 011.505.81a4.413 4.413 0 00-.6 2.23 4.43 4.43 0 001.972 3.69 4.415 4.415 0 01-2.009-.555v.056a4.436 4.436 0 003.556 4.347 4.44 4.44 0 01-2.002.076 4.438 4.438 0 004.142 3.079 8.895 8.895 0 01-5.506 1.898A9.014 9.014 0 010 15.57a12.548 12.548 0 006.796 1.992c8.155 0 12.614-6.756 12.614-12.615 0-.192-.004-.383-.012-.573a9.007 9.007 0 002.212-2.295z" fill="#fff"/></svg>