<svg width="19" height="19" viewBox="0 0 19 19" fill="none" xmlns="http://www.w3.org/2000/svg">
<path d="M9.02447 1.46352C9.17415 1.00287 9.82585 1.00287 9.97553 1.46353L11.5206 6.21885C11.5876 6.42486 11.7795 6.56434 11.9962 6.56434H16.9962C17.4806 6.56434 17.6819 7.18415 17.2901 7.46885L13.245 10.4078C13.0697 10.5351 12.9964 10.7608 13.0633 10.9668L14.6084 15.7221C14.7581 16.1828 14.2309 16.5659 13.839 16.2812L9.79389 13.3422C9.61865 13.2149 9.38135 13.2149 9.20611 13.3422L5.16099 16.2812C4.76913 16.5659 4.24189 16.1828 4.39157 15.7221L5.93667 10.9668C6.0036 10.7608 5.93027 10.5351 5.75503 10.4078L1.70991 7.46885C1.31805 7.18415 1.51944 6.56434 2.0038 6.56434H7.00385C7.22046 6.56434 7.41244 6.42486 7.47937 6.21885L9.02447 1.46352Z" fill="#FFA800"/>
<mask id="mask0" mask-type="alpha" maskUnits="userSpaceOnUse" x="1" y="1" width="17" height="16">
<path d="M9.5 1.61803L11.0451 6.37336C11.179 6.78538 11.5629 7.06434 11.9962 7.06434H16.9962L12.9511 10.0033C12.6006 10.2579 12.4539 10.7093 12.5878 11.1213L14.1329 15.8766L10.0878 12.9377C9.7373 12.6831 9.2627 12.6831 8.91222 12.9377L4.8671 15.8766L6.41219 11.1213C6.54607 10.7093 6.39941 10.2579 6.04892 10.0033L2.0038 7.06434L7.00385 7.06434C7.43707 7.06434 7.82103 6.78538 7.9549 6.37336L9.5 1.61803Z" fill="#FFA800" stroke="#FFA800"/>
</mask>
<g mask="url(#mask0)">
<rect x="9.5" y="-4" width="15" height="25" fill="white"/>
<path d="M9.5 1.61803L11.0451 6.37336C11.179 6.78538 11.5629 7.06434 11.9962 7.06434H16.9962L12.9511 10.0033C12.6006 10.2579 12.4539 10.7093 12.5878 11.1213L14.1329 15.8766L10.0878 12.9377C9.7373 12.6831 9.2627 12.6831 8.91222 12.9377L4.8671 15.8766L6.41219 11.1213C6.54607 10.7093 6.39941 10.2579 6.04892 10.0033L2.0038 7.06434L7.00385 7.06434C7.43707 7.06434 7.82103 6.78538 7.9549 6.37336L9.5 1.61803Z" stroke="#FFA800"/>
</g>
</svg>
