<svg width="20" height="20" viewBox="0 0 20 20" fill="none" xmlns="http://www.w3.org/2000/svg">
<path d="M15.2053 13.2301C14.5519 12.5851 13.7362 12.5851 13.087 13.2301C12.5917 13.7212 12.0964 14.2123 11.6095 14.7118C11.4763 14.8491 11.364 14.8782 11.2017 14.7867C10.8812 14.6119 10.5399 14.4704 10.232 14.2789C8.79613 13.3758 7.59337 12.2147 6.52794 10.9079C5.99939 10.2586 5.52911 9.5636 5.20032 8.78118C5.13374 8.62303 5.14622 8.51899 5.27524 8.38997C5.77049 7.91136 6.25326 7.42027 6.74019 6.92918C7.41857 6.24664 7.41857 5.44757 6.73603 4.76088C6.34898 4.36967 5.96194 3.98678 5.57489 3.59557C5.17535 3.19604 4.77998 2.79234 4.37629 2.39697C3.72288 1.76021 2.90717 1.76021 2.25792 2.40113C1.75851 2.89223 1.2799 3.3958 0.772157 3.87857C0.301873 4.32389 0.0646494 4.86908 0.0147076 5.50584C-0.0643668 6.54213 0.189504 7.52015 0.547419 8.47321C1.2799 10.4459 2.39526 12.198 3.74785 13.8045C5.57489 15.9769 7.75568 17.6958 10.3069 18.936C11.4555 19.4937 12.6458 19.9223 13.9401 19.9931C14.8308 20.043 15.6049 19.8183 16.225 19.1233C16.6495 18.6488 17.1281 18.216 17.5776 17.7624C18.2434 17.0881 18.2476 16.2724 17.5859 15.6065C16.7951 14.8116 16.0002 14.0209 15.2053 13.2301Z" fill="#333333"/>
<path d="M14.4104 9.91346L15.9461 9.65126C15.7047 8.24041 15.0389 6.96273 14.0275 5.94725C12.9579 4.87766 11.6054 4.20345 10.1154 3.99536L9.89902 5.53939C11.0518 5.7017 12.1006 6.22193 12.9288 7.05013C13.7112 7.83255 14.2231 8.82306 14.4104 9.91346Z" fill="#333333"/>
<path d="M16.8118 3.23789C15.0388 1.46496 12.7956 0.34543 10.3193 0L10.1029 1.54403C12.2421 1.84368 14.1815 2.81338 15.7131 4.34077C17.1655 5.79324 18.1186 7.6286 18.464 9.64708L19.9997 9.38488C19.596 7.04595 18.4931 4.92342 16.8118 3.23789Z" fill="#333333"/>
</svg>
