<svg width="20" height="20" fill="none" xmlns="http://www.w3.org/2000/svg"><path d="M14.907 4.221c.767 0 1.388-.617 1.388-1.385V1.387C16.295.62 15.675 0 14.907 0c-.767 0-1.386.618-1.386 1.387v1.45c0 .767.62 1.384 1.386 1.384z" fill="#00D053"/><path d="M19.837 2.899a.5.5 0 00-.5-.5h-1.794a.5.5 0 00-.5.5v.206a2.113 2.113 0 11-4.223 0V2.9a.5.5 0 00-.5-.5H7.685a.5.5 0 00-.5.5v.205a2.115 2.115 0 01-2.112 2.112A2.114 2.114 0 012.96 3.105v-.212a.5.5 0 00-.494-.5L.649 2.371a.5.5 0 00-.506.5V19.5a.5.5 0 00.5.5H18.45l.908-.003a.5.5 0 00.498-.5l-.02-16.598zm-1.389 15.696H2.052a.5.5 0 01-.5-.5V7.83a.5.5 0 01.5-.5H17.95a.5.5 0 01.5.5v10.765l-.002.001z" fill="#00D053"/><path d="M5.05 4.221c.767 0 1.389-.617 1.389-1.385V1.387C6.439.618 5.817 0 5.05 0S3.664.618 3.664 1.387v1.45c0 .767.619 1.384 1.386 1.384zm4.258 4.62H7.29a.1.1 0 00-.1.1V10.7a.1.1 0 00.1.1h2.02a.1.1 0 00.1-.1V8.94a.1.1 0 00-.1-.1zm3.59 0h-2.02a.1.1 0 00-.1.1V10.7a.1.1 0 00.1.1h2.02a.1.1 0 00.1-.1V8.94a.1.1 0 00-.1-.1zm3.326 0h-2.02a.1.1 0 00-.1.1V10.7a.1.1 0 00.1.1h2.02a.1.1 0 00.1-.1V8.94a.1.1 0 00-.1-.1zm-6.916 3.253H7.29a.1.1 0 00-.1.1v1.757a.1.1 0 00.1.1h2.02a.1.1 0 00.1-.1v-1.757a.1.1 0 00-.1-.1zm3.59 0h-2.02a.1.1 0 00-.1.1v1.757a.1.1 0 00.1.1h2.02a.1.1 0 00.1-.1v-1.757a.1.1 0 00-.1-.1zm3.326 0h-2.02a.1.1 0 00-.1.1v1.757a.1.1 0 00.1.1h2.02a.1.1 0 00.1-.1v-1.757a.1.1 0 00-.1-.1zM9.308 15.41H7.29a.1.1 0 00-.1.1v1.758a.1.1 0 00.1.1h2.02a.1.1 0 00.1-.1v-1.757a.1.1 0 00-.1-.1zm-3.526-3.316H3.765a.1.1 0 00-.1.1v1.757a.1.1 0 00.1.1h2.017a.1.1 0 00.1-.1v-1.757a.1.1 0 00-.1-.1zm0 3.316H3.765a.1.1 0 00-.1.1v1.758a.1.1 0 00.1.1h2.017a.1.1 0 00.1-.1v-1.757a.1.1 0 00-.1-.1zm7.116 0h-2.02a.1.1 0 00-.1.1v1.758a.1.1 0 00.1.1h2.02a.1.1 0 00.1-.1v-1.757a.1.1 0 00-.1-.1zm3.326 0h-2.02a.1.1 0 00-.1.1v1.758a.1.1 0 00.1.1h2.02a.1.1 0 00.1-.1v-1.757a.1.1 0 00-.1-.1z" fill="#00D053"/></svg>