<svg width="19" height="19" fill="none" xmlns="http://www.w3.org/2000/svg"><path d="M9.024 1.464a.5.5 0 01.952 0l1.545 4.755a.5.5 0 00.475.345h5a.5.5 0 01.294.905l-4.045 2.939a.5.5 0 00-.182.559l1.545 4.755a.5.5 0 01-.769.56l-4.045-2.94a.5.5 0 00-.588 0l-4.045 2.94a.5.5 0 01-.77-.56l1.546-4.755a.5.5 0 00-.182-.56L1.71 7.47a.5.5 0 01.294-.905h5a.5.5 0 00.475-.345l1.545-4.755z" fill="#FFA800"/><mask id="a" maskUnits="userSpaceOnUse" x="1" y="1" width="17" height="16"><path d="M9.5 1.618l1.545 4.755a1 1 0 00.951.691h5l-4.045 2.94a1 1 0 00-.363 1.117l1.545 4.756-4.045-2.94a1 1 0 00-1.176 0l-4.045 2.94 1.545-4.756a1 1 0 00-.363-1.118L2.004 7.064h5a1 1 0 00.95-.69L9.5 1.617z" fill="#FFA800" stroke="#FFA800"/></mask><g mask="url(#a)"><path fill="#fff" d="M9.5-4h15v25h-15z"/><path d="M9.5 1.618l1.545 4.755a1 1 0 00.951.691h5l-4.045 2.94a1 1 0 00-.363 1.117l1.545 4.756-4.045-2.94a1 1 0 00-1.176 0l-4.045 2.94 1.545-4.756a1 1 0 00-.363-1.118L2.004 7.064h5a1 1 0 00.95-.69L9.5 1.617z" stroke="#FFA800"/></g></svg>