<svg width="20" height="20" fill="none" xmlns="http://www.w3.org/2000/svg"><path d="M15.205 13.23c-.653-.645-1.469-.645-2.118 0-.495.491-.99.982-1.477 1.482-.134.137-.246.166-.408.075-.32-.175-.662-.317-.97-.508-1.436-.903-2.639-2.064-3.704-3.371-.529-.65-.999-1.344-1.328-2.127-.066-.158-.054-.262.075-.391.495-.479.978-.97 1.465-1.46.679-.683.679-1.482-.004-2.17-.387-.39-.774-.773-1.161-1.164-.4-.4-.795-.804-1.199-1.199-.653-.637-1.469-.637-2.118.004-.5.491-.978.995-1.486 1.478-.47.445-.707.99-.757 1.627-.08 1.036.175 2.014.532 2.967.733 1.973 1.848 3.725 3.2 5.332a19.806 19.806 0 006.56 5.131c1.149.558 2.339.986 3.633 1.057.89.05 1.665-.175 2.285-.87.424-.474.903-.907 1.353-1.36.665-.675.67-1.49.008-2.157-.79-.794-1.586-1.585-2.38-2.376zm-.795-3.317l1.536-.262a6.863 6.863 0 00-1.918-3.704 6.827 6.827 0 00-3.913-1.952L9.9 5.54a5.297 5.297 0 013.03 1.511 5.296 5.296 0 011.481 2.863zm2.402-6.675A11.324 11.324 0 0010.319 0l-.216 1.544c2.14.3 4.079 1.27 5.61 2.797a9.811 9.811 0 012.751 5.306L20 9.385a11.407 11.407 0 00-3.188-6.147z" fill="#333"/></svg>