<svg width="20" height="20" fill="none" xmlns="http://www.w3.org/2000/svg"><path d="M7.269 9.735a.33.33 0 01-.331.33H5.695a.33.33 0 01-.331-.33V8.492a.33.33 0 01.331-.331h1.243a.33.33 0 01.331.33v1.244zm2.596-1.24a.33.33 0 00-.331-.33H8.29a.33.33 0 00-.331.33V9.74a.33.33 0 00.331.33h1.243a.33.33 0 00.331-.33V8.496zm2.596 0a.33.33 0 00-.331-.33h-1.243a.33.33 0 00-.331.33V9.74a.33.33 0 00.331.33h1.243a.33.33 0 00.331-.33V8.496zM7.27 11.023a.33.33 0 00-.331-.33H5.695a.33.33 0 00-.331.33v1.243a.33.33 0 00.331.331h1.243a.33.33 0 00.331-.33v-1.244zm2.596 0a.33.33 0 00-.331-.33H8.29a.33.33 0 00-.331.33v1.243a.33.33 0 00.331.331h1.243a.33.33 0 00.331-.33v-1.244zm2.265-.33h-1.243a.33.33 0 00-.331.33v1.243a.33.33 0 00.331.331h1.243a.33.33 0 00.331-.33v-1.244a.33.33 0 00-.331-.33zm-7.792 2.526h-1.24a.33.33 0 00-.33.33v1.244a.33.33 0 00.33.33h1.244a.33.33 0 00.33-.33V13.55a.333.333 0 00-.334-.331zm.335-2.196a.33.33 0 00-.331-.33H3.099a.33.33 0 00-.331.33v1.243a.33.33 0 00.33.331h1.244a.33.33 0 00.33-.33v-1.244zm4.86 2.196H8.292a.33.33 0 00-.331.33v1.244a.33.33 0 00.331.33h1.243a.33.33 0 00.331-.33V13.55a.33.33 0 00-.331-.331zm-2.595 0H5.695a.33.33 0 00-.331.33v1.244a.33.33 0 00.331.33h1.243a.33.33 0 00.331-.33V13.55a.33.33 0 00-.331-.331zm7.788-3.148a.33.33 0 00.331-.331V8.496a.33.33 0 00-.33-.331h-1.244a.33.33 0 00-.33.33V9.74a.33.33 0 00.33.33h1.243zM1.95 17.82h9.432a5.086 5.086 0 01-.241-1.504H1.95a.442.442 0 01-.442-.442V6.991h14.787v4.133c.523.005 1.03.082 1.505.234V3.88c0-1.075-.875-1.95-1.95-1.95h-2.184V.728a.712.712 0 00-.711-.711h-1.108a.712.712 0 00-.712.711v1.206H6.664V.728a.712.712 0 00-.711-.711H4.845a.712.712 0 00-.712.711v1.206H1.95C.875 1.934 0 2.809 0 3.884v11.991c0 1.071.875 1.946 1.95 1.946zM20 16.26a3.725 3.725 0 11-7.45 0 3.725 3.725 0 017.45 0zm-1.844-.964a.447.447 0 00-.764-.315l-1.62 1.619-.62-.622a.447.447 0 10-.634.63l.936.936a.447.447 0 00.633 0l1.934-1.934a.42.42 0 00.135-.314z" fill="#333"/></svg>